<mxfile host="app.diagrams.net" agent="Mozilla/5.0 (Windows NT 10.0; Win64; x64; rv:143.0) Gecko/20100101 Firefox/143.0" version="28.2.5">
  <diagram name="Страница — 1" id="gMJsvWR00w87rd-gi81B">
    <mxGraphModel dx="1554" dy="822" grid="1" gridSize="10" guides="1" tooltips="1" connect="1" arrows="1" fold="1" page="1" pageScale="1" pageWidth="827" pageHeight="1169" math="0" shadow="0">
      <root>
        <mxCell id="0" />
        <mxCell id="1" parent="0" />
        <mxCell id="9ZL8dcVRJzwICusE52Pn-10" style="rounded=0;orthogonalLoop=1;jettySize=auto;html=1;exitX=1;exitY=0;exitDx=0;exitDy=0;entryX=0;entryY=0.5;entryDx=0;entryDy=0;" edge="1" parent="1" source="9ZL8dcVRJzwICusE52Pn-1" target="9ZL8dcVRJzwICusE52Pn-4">
          <mxGeometry relative="1" as="geometry" />
        </mxCell>
        <mxCell id="9ZL8dcVRJzwICusE52Pn-11" style="rounded=0;orthogonalLoop=1;jettySize=auto;html=1;exitX=1;exitY=0.5;exitDx=0;exitDy=0;entryX=0;entryY=0.5;entryDx=0;entryDy=0;" edge="1" parent="1" source="9ZL8dcVRJzwICusE52Pn-1" target="9ZL8dcVRJzwICusE52Pn-5">
          <mxGeometry relative="1" as="geometry" />
        </mxCell>
        <mxCell id="9ZL8dcVRJzwICusE52Pn-13" style="rounded=0;orthogonalLoop=1;jettySize=auto;html=1;exitX=1;exitY=1;exitDx=0;exitDy=0;entryX=0;entryY=0.5;entryDx=0;entryDy=0;" edge="1" parent="1" source="9ZL8dcVRJzwICusE52Pn-1" target="9ZL8dcVRJzwICusE52Pn-6">
          <mxGeometry relative="1" as="geometry" />
        </mxCell>
        <mxCell id="9ZL8dcVRJzwICusE52Pn-1" value="&lt;div&gt;file.cpp&lt;/div&gt;" style="rounded=0;whiteSpace=wrap;html=1;fontSize=17;" vertex="1" parent="1">
          <mxGeometry y="70" width="120" height="60" as="geometry" />
        </mxCell>
        <mxCell id="9ZL8dcVRJzwICusE52Pn-20" style="rounded=0;orthogonalLoop=1;jettySize=auto;html=1;exitX=1;exitY=0;exitDx=0;exitDy=0;entryX=0;entryY=0.5;entryDx=0;entryDy=0;" edge="1" parent="1" source="9ZL8dcVRJzwICusE52Pn-2" target="9ZL8dcVRJzwICusE52Pn-17">
          <mxGeometry relative="1" as="geometry" />
        </mxCell>
        <mxCell id="9ZL8dcVRJzwICusE52Pn-21" style="rounded=0;orthogonalLoop=1;jettySize=auto;html=1;exitX=1;exitY=0.5;exitDx=0;exitDy=0;entryX=0;entryY=0.5;entryDx=0;entryDy=0;" edge="1" parent="1" source="9ZL8dcVRJzwICusE52Pn-2" target="9ZL8dcVRJzwICusE52Pn-18">
          <mxGeometry relative="1" as="geometry" />
        </mxCell>
        <mxCell id="9ZL8dcVRJzwICusE52Pn-22" style="rounded=0;orthogonalLoop=1;jettySize=auto;html=1;exitX=1;exitY=1;exitDx=0;exitDy=0;entryX=0;entryY=0.5;entryDx=0;entryDy=0;" edge="1" parent="1" source="9ZL8dcVRJzwICusE52Pn-2" target="9ZL8dcVRJzwICusE52Pn-19">
          <mxGeometry relative="1" as="geometry" />
        </mxCell>
        <mxCell id="9ZL8dcVRJzwICusE52Pn-2" value="file.c" style="rounded=0;whiteSpace=wrap;html=1;fontSize=17;" vertex="1" parent="1">
          <mxGeometry y="280" width="120" height="60" as="geometry" />
        </mxCell>
        <mxCell id="9ZL8dcVRJzwICusE52Pn-29" style="rounded=0;orthogonalLoop=1;jettySize=auto;html=1;exitX=1;exitY=0;exitDx=0;exitDy=0;entryX=0;entryY=0.5;entryDx=0;entryDy=0;" edge="1" parent="1" source="9ZL8dcVRJzwICusE52Pn-3" target="9ZL8dcVRJzwICusE52Pn-26">
          <mxGeometry relative="1" as="geometry" />
        </mxCell>
        <mxCell id="9ZL8dcVRJzwICusE52Pn-30" style="rounded=0;orthogonalLoop=1;jettySize=auto;html=1;exitX=1;exitY=0.5;exitDx=0;exitDy=0;entryX=0;entryY=0.5;entryDx=0;entryDy=0;" edge="1" parent="1" source="9ZL8dcVRJzwICusE52Pn-3" target="9ZL8dcVRJzwICusE52Pn-27">
          <mxGeometry relative="1" as="geometry" />
        </mxCell>
        <mxCell id="9ZL8dcVRJzwICusE52Pn-31" style="rounded=0;orthogonalLoop=1;jettySize=auto;html=1;exitX=1;exitY=1;exitDx=0;exitDy=0;entryX=0;entryY=0.5;entryDx=0;entryDy=0;" edge="1" parent="1" source="9ZL8dcVRJzwICusE52Pn-3" target="9ZL8dcVRJzwICusE52Pn-28">
          <mxGeometry relative="1" as="geometry" />
        </mxCell>
        <mxCell id="9ZL8dcVRJzwICusE52Pn-3" value="a.f&lt;br&gt;(Fortran)" style="rounded=0;whiteSpace=wrap;html=1;fontSize=17;" vertex="1" parent="1">
          <mxGeometry y="490" width="120" height="60" as="geometry" />
        </mxCell>
        <mxCell id="9ZL8dcVRJzwICusE52Pn-14" style="rounded=0;orthogonalLoop=1;jettySize=auto;html=1;exitX=1;exitY=0.5;exitDx=0;exitDy=0;entryX=0;entryY=0.5;entryDx=0;entryDy=0;strokeWidth=2;fillColor=#d5e8d4;strokeColor=#82b366;" edge="1" parent="1" source="9ZL8dcVRJzwICusE52Pn-4" target="9ZL8dcVRJzwICusE52Pn-7">
          <mxGeometry relative="1" as="geometry" />
        </mxCell>
        <mxCell id="9ZL8dcVRJzwICusE52Pn-4" value="C++ to X86" style="rounded=0;whiteSpace=wrap;html=1;fillColor=#d5e8d4;strokeColor=#82b366;" vertex="1" parent="1">
          <mxGeometry x="340" width="120" height="60" as="geometry" />
        </mxCell>
        <mxCell id="9ZL8dcVRJzwICusE52Pn-15" style="rounded=0;orthogonalLoop=1;jettySize=auto;html=1;exitX=1;exitY=0.5;exitDx=0;exitDy=0;entryX=0;entryY=0.5;entryDx=0;entryDy=0;strokeWidth=2;fillColor=#d5e8d4;strokeColor=#82b366;" edge="1" parent="1" source="9ZL8dcVRJzwICusE52Pn-5" target="9ZL8dcVRJzwICusE52Pn-8">
          <mxGeometry relative="1" as="geometry" />
        </mxCell>
        <mxCell id="9ZL8dcVRJzwICusE52Pn-5" value="C++ to Arm" style="rounded=0;whiteSpace=wrap;html=1;fillColor=#d5e8d4;strokeColor=#82b366;" vertex="1" parent="1">
          <mxGeometry x="340" y="70" width="120" height="60" as="geometry" />
        </mxCell>
        <mxCell id="9ZL8dcVRJzwICusE52Pn-16" style="rounded=0;orthogonalLoop=1;jettySize=auto;html=1;exitX=1;exitY=0.5;exitDx=0;exitDy=0;entryX=0;entryY=0.5;entryDx=0;entryDy=0;strokeWidth=2;fillColor=#d5e8d4;strokeColor=#82b366;" edge="1" parent="1" source="9ZL8dcVRJzwICusE52Pn-6" target="9ZL8dcVRJzwICusE52Pn-9">
          <mxGeometry relative="1" as="geometry" />
        </mxCell>
        <mxCell id="9ZL8dcVRJzwICusE52Pn-6" value="C++ to RISC-V" style="rounded=0;whiteSpace=wrap;html=1;fillColor=#d5e8d4;strokeColor=#82b366;" vertex="1" parent="1">
          <mxGeometry x="340" y="140" width="120" height="60" as="geometry" />
        </mxCell>
        <mxCell id="9ZL8dcVRJzwICusE52Pn-7" value="X86 code" style="rounded=0;whiteSpace=wrap;html=1;" vertex="1" parent="1">
          <mxGeometry x="707" y="200" width="120" height="60" as="geometry" />
        </mxCell>
        <mxCell id="9ZL8dcVRJzwICusE52Pn-8" value="ARM code" style="rounded=0;whiteSpace=wrap;html=1;" vertex="1" parent="1">
          <mxGeometry x="707" y="280" width="120" height="60" as="geometry" />
        </mxCell>
        <mxCell id="9ZL8dcVRJzwICusE52Pn-9" value="RISC-V code" style="rounded=0;whiteSpace=wrap;html=1;" vertex="1" parent="1">
          <mxGeometry x="707" y="360" width="120" height="60" as="geometry" />
        </mxCell>
        <mxCell id="9ZL8dcVRJzwICusE52Pn-23" style="rounded=0;orthogonalLoop=1;jettySize=auto;html=1;exitX=1;exitY=0.5;exitDx=0;exitDy=0;entryX=0;entryY=0.5;entryDx=0;entryDy=0;strokeWidth=2;fillColor=#f8cecc;strokeColor=#b85450;" edge="1" parent="1" source="9ZL8dcVRJzwICusE52Pn-17" target="9ZL8dcVRJzwICusE52Pn-7">
          <mxGeometry relative="1" as="geometry" />
        </mxCell>
        <mxCell id="9ZL8dcVRJzwICusE52Pn-17" value="C to X86" style="rounded=0;whiteSpace=wrap;html=1;fillColor=#f8cecc;strokeColor=#b85450;" vertex="1" parent="1">
          <mxGeometry x="340" y="210" width="120" height="60" as="geometry" />
        </mxCell>
        <mxCell id="9ZL8dcVRJzwICusE52Pn-24" style="rounded=0;orthogonalLoop=1;jettySize=auto;html=1;exitX=1;exitY=0.5;exitDx=0;exitDy=0;entryX=0;entryY=0.5;entryDx=0;entryDy=0;fillColor=#f8cecc;strokeColor=#b85450;strokeWidth=2;" edge="1" parent="1" source="9ZL8dcVRJzwICusE52Pn-18" target="9ZL8dcVRJzwICusE52Pn-8">
          <mxGeometry relative="1" as="geometry" />
        </mxCell>
        <mxCell id="9ZL8dcVRJzwICusE52Pn-18" value="C to Arm" style="rounded=0;whiteSpace=wrap;html=1;fillColor=#f8cecc;strokeColor=#b85450;" vertex="1" parent="1">
          <mxGeometry x="340" y="280" width="120" height="60" as="geometry" />
        </mxCell>
        <mxCell id="9ZL8dcVRJzwICusE52Pn-25" style="rounded=0;orthogonalLoop=1;jettySize=auto;html=1;exitX=1;exitY=0.5;exitDx=0;exitDy=0;entryX=0;entryY=0.5;entryDx=0;entryDy=0;strokeWidth=2;fillColor=#f8cecc;strokeColor=#b85450;" edge="1" parent="1" source="9ZL8dcVRJzwICusE52Pn-19" target="9ZL8dcVRJzwICusE52Pn-9">
          <mxGeometry relative="1" as="geometry" />
        </mxCell>
        <mxCell id="9ZL8dcVRJzwICusE52Pn-19" value="C to RISC-V" style="rounded=0;whiteSpace=wrap;html=1;fillColor=#f8cecc;strokeColor=#b85450;" vertex="1" parent="1">
          <mxGeometry x="340" y="350" width="120" height="60" as="geometry" />
        </mxCell>
        <mxCell id="9ZL8dcVRJzwICusE52Pn-32" style="rounded=0;orthogonalLoop=1;jettySize=auto;html=1;exitX=1;exitY=0.5;exitDx=0;exitDy=0;entryX=0;entryY=0.5;entryDx=0;entryDy=0;fillColor=#dae8fc;strokeColor=#6c8ebf;strokeWidth=2;" edge="1" parent="1" source="9ZL8dcVRJzwICusE52Pn-26" target="9ZL8dcVRJzwICusE52Pn-7">
          <mxGeometry relative="1" as="geometry" />
        </mxCell>
        <mxCell id="9ZL8dcVRJzwICusE52Pn-26" value="Fortran to X86" style="rounded=0;whiteSpace=wrap;html=1;fillColor=#dae8fc;strokeColor=#6c8ebf;" vertex="1" parent="1">
          <mxGeometry x="340" y="420" width="120" height="60" as="geometry" />
        </mxCell>
        <mxCell id="9ZL8dcVRJzwICusE52Pn-33" style="rounded=0;orthogonalLoop=1;jettySize=auto;html=1;exitX=1;exitY=0.5;exitDx=0;exitDy=0;entryX=0;entryY=0.5;entryDx=0;entryDy=0;fillColor=#dae8fc;strokeColor=#6c8ebf;strokeWidth=2;" edge="1" parent="1" source="9ZL8dcVRJzwICusE52Pn-27" target="9ZL8dcVRJzwICusE52Pn-8">
          <mxGeometry relative="1" as="geometry" />
        </mxCell>
        <mxCell id="9ZL8dcVRJzwICusE52Pn-27" value="Fortran&amp;nbsp;to Arm" style="rounded=0;whiteSpace=wrap;html=1;fillColor=#dae8fc;strokeColor=#6c8ebf;" vertex="1" parent="1">
          <mxGeometry x="340" y="490" width="120" height="60" as="geometry" />
        </mxCell>
        <mxCell id="9ZL8dcVRJzwICusE52Pn-34" style="rounded=0;orthogonalLoop=1;jettySize=auto;html=1;exitX=1;exitY=0.5;exitDx=0;exitDy=0;entryX=0;entryY=0.5;entryDx=0;entryDy=0;fillColor=#dae8fc;strokeColor=#6c8ebf;strokeWidth=2;" edge="1" parent="1" source="9ZL8dcVRJzwICusE52Pn-28" target="9ZL8dcVRJzwICusE52Pn-9">
          <mxGeometry relative="1" as="geometry" />
        </mxCell>
        <mxCell id="9ZL8dcVRJzwICusE52Pn-28" value="Fortran&amp;nbsp;to RISC-V" style="rounded=0;whiteSpace=wrap;html=1;fillColor=#dae8fc;strokeColor=#6c8ebf;" vertex="1" parent="1">
          <mxGeometry x="340" y="560" width="120" height="60" as="geometry" />
        </mxCell>
      </root>
    </mxGraphModel>
  </diagram>
</mxfile>
